<?xml version="1.0" encoding="iso-8859-1"?>
<!-- Generator: Adobe Illustrator 19.0.0, SVG Export Plug-In . SVG Version: 6.00 Build 0)  -->
<svg xmlns="http://www.w3.org/2000/svg" xmlns:xlink="http://www.w3.org/1999/xlink" version="1.1" id="Capa_1" x="0px" y="0px" viewBox="0 0 512 512" style="enable-background:new 0 0 512 512;" xml:space="preserve" width="512px" height="512px">
<g>
	<g>
		<path d="M101.463,283.372c-39.411,0-71.474,32.063-71.474,71.474s32.063,71.474,71.474,71.474s71.473-32.063,71.473-71.474    S140.874,283.372,101.463,283.372z M101.463,411.113c-31.026,0-56.266-25.241-56.266-56.266c0-31.025,25.241-56.266,56.266-56.266    c31.025,0,56.265,25.241,56.265,56.266C157.728,385.872,132.488,411.113,101.463,411.113z" fill="#f8a02b"/>
	</g>
</g>
<g>
	<g>
		<path d="M101.463,311.529c-23.886,0-43.318,19.433-43.318,43.317c0,23.885,19.433,43.317,43.318,43.317    s43.317-19.433,43.317-43.317C144.78,330.962,125.349,311.529,101.463,311.529z M101.463,382.956    c-15.5,0-28.11-12.61-28.11-28.109s12.61-28.109,28.11-28.109c15.499,0,28.109,12.61,28.109,28.109    S116.962,382.956,101.463,382.956z" fill="#f8a02b"/>
	</g>
</g>
<g>
	<g>
		<path d="M400.681,311.529c-23.886,0-43.317,19.433-43.317,43.317c0,23.885,19.432,43.317,43.317,43.317    c23.886,0,43.318-19.433,43.318-43.317C443.999,330.962,424.567,311.529,400.681,311.529z M400.681,382.956    c-15.499,0-28.109-12.61-28.109-28.109s12.61-28.109,28.109-28.109c15.5,0,28.11,12.61,28.11,28.109    S416.181,382.956,400.681,382.956z" fill="#f8a02b"/>
	</g>
</g>
<g>
	<g>
		<path d="M400.681,283.372c-39.411,0-71.474,32.063-71.474,71.474s32.063,71.474,71.474,71.474s71.474-32.063,71.474-71.474    S440.092,283.372,400.681,283.372z M400.681,411.113c-31.026,0-56.266-25.241-56.266-56.266c0-31.025,25.241-56.266,56.266-56.266    c31.025,0,56.266,25.241,56.266,56.266C456.947,385.872,431.707,411.113,400.681,411.113z" fill="#f8a02b"/>
	</g>
</g>
<g>
	<g>
		<path d="M506.582,238.576l-144.174-43.269l-45.507-73.764v-0.829c0-19.318-15.716-35.034-35.034-35.034h-45.126    c-4.2,0-7.604,3.405-7.604,7.604c0,4.199,3.404,7.604,7.604,7.604h45.126c9.343,0,17.197,6.496,19.284,15.208H166.854v-15.208    h44.539c4.2,0,7.604-3.405,7.604-7.604c0-4.199-3.404-7.604-7.604-7.604H159.25c-1.867,0-3.574,0.675-4.897,1.79l-0.002-0.002    L2.705,215.207l0.003,0.004C1.038,216.619,0,218.718,0,221.024v27.695c0,4.199,3.404,7.604,7.604,7.604s7.604-3.405,7.604-7.604    v-21.504l113.036-23.42l36.903,72.386c1.298,2.547,3.916,4.151,6.775,4.151h128.249c2.298,0,4.473-1.039,5.917-2.828    l54.074-66.991l136.63,41.004v95.727h-8.561c-4.2,0-7.604,3.405-7.604,7.604s3.404,7.604,7.604,7.604h16.165    c4.2,0,7.604-3.405,7.604-7.604V245.858C512,242.5,509.798,239.541,506.582,238.576z M238.362,131.303l-23.919,27.495    l-31.498-27.495H238.362z M247.451,144.025v87.388H171.43L247.451,144.025z M126.739,188.574l-91.256,18.906l116.163-97.851    v12.686L126.739,188.574z M156.394,225.526l-15.713-30.819l22.674-60.317l41.106,35.883L156.394,225.526z M247.452,265.123    h-70.871l-9.433-18.502h80.304V265.123z M296.536,265.122h-33.877V131.303h42.394l43.103,69.868L296.536,265.122z" fill="#f8a02b"/>
	</g>
</g>
<g>
	<g>
		<path d="M7.604,266.462c-4.2,0-7.604,3.405-7.604,7.604v80.78c0,4.199,3.404,7.604,7.604,7.604s7.604-3.405,7.604-7.604v-80.78    C15.208,269.867,11.804,266.462,7.604,266.462z" fill="#f8a02b"/>
	</g>
</g>
<g>
	<g>
		<path d="M310.306,347.242h-118.47c-4.2,0-7.604,3.405-7.604,7.604s3.404,7.604,7.604,7.604h118.47c4.2,0,7.604-3.405,7.604-7.604    S314.507,347.242,310.306,347.242z" fill="#f8a02b"/>
	</g>
</g>
<g>
	<g>
		<path d="M326.834,183.204c-2.971-2.97-7.784-2.97-10.754,0l-30.414,30.415c-2.97,2.97-2.97,7.784,0,10.753    c1.485,1.484,3.432,2.227,5.378,2.227s3.892-0.742,5.378-2.227l10.156-10.156l5.098,6.089c2.697,3.22,7.493,3.646,10.711,0.949    c3.22-2.696,3.645-7.491,0.95-10.711l-5.965-7.123l9.463-9.462C329.804,190.988,329.804,186.173,326.834,183.204z" fill="#f8a02b"/>
	</g>
</g>
<g>
</g>
<g>
</g>
<g>
</g>
<g>
</g>
<g>
</g>
<g>
</g>
<g>
</g>
<g>
</g>
<g>
</g>
<g>
</g>
<g>
</g>
<g>
</g>
<g>
</g>
<g>
</g>
<g>
</g>
</svg>
