<?xml version="1.0" encoding="iso-8859-1"?>
<!-- Generator: Adobe Illustrator 19.0.0, SVG Export Plug-In . SVG Version: 6.00 Build 0)  -->
<svg xmlns="http://www.w3.org/2000/svg" xmlns:xlink="http://www.w3.org/1999/xlink" version="1.1" id="Layer_1" x="0px" y="0px" viewBox="0 0 511.999 511.999" style="enable-background:new 0 0 511.999 511.999;" xml:space="preserve" width="512px" height="512px">
<g>
	<g>
		<path d="M510.127,191.906l-46.177-71.124V44.997c0-6.411-5.199-11.609-11.609-11.609h-56.816c-6.41,0-11.609,5.199-11.609,11.609    v75.786l-46.177,71.124c-1.222,1.882-1.873,4.078-1.873,6.321v39.813c-12.819-3.361-27.042-0.037-37.069,9.988    c-12.616,12.617-15.892,48.139-16.595,58.725c-0.088,1.332,0.063,2.649,0.416,3.906c-5.055-3.247-11.149-6.613-17.973-9.293    c-27.12-10.658-52.1-5.818-72.24,13.992c-6.111,6.011-10.769,13.147-14.154,21h-87.69V262.83h151.304v11.227    c0,6.411,5.199,11.609,11.609,11.609s11.609-5.199,11.609-11.609v-22.836c0-6.411-5.199-11.609-11.609-11.609H78.953    c-6.41,0-11.609,5.199-11.609,11.609v87.46c0,1.652,0.351,3.22,0.973,4.644c-0.622,1.423-0.973,2.992-0.973,4.644    c0,6.411,5.199,11.609,11.609,11.609h93.124c-2.172,17.317,0.144,36.06,5.925,53.382H72.191    c-27.004,0-48.973-19.735-48.973-43.994V229.993c0-23.447,21.25-42.523,47.371-42.523h42.09h114.864h24.676    c15.94,0,30.724,7.15,39.547,19.127c3.801,5.159,11.069,6.263,16.232,2.46c5.161-3.802,6.264-11.069,2.46-16.232    c-13.181-17.891-34.952-28.572-58.24-28.572h-13.067v-0.514c0-34.184-27.811-61.995-61.995-61.995h-14.093    c-34.184,0-61.995,27.811-61.995,61.995v0.514H70.589C31.665,164.252,0,193.742,0,229.993v138.973    c0,37.061,32.385,67.212,72.191,67.212h116.196c3.525,6.119,7.51,11.813,11.928,16.868c12.31,14.085,27.126,22.715,42.841,24.959    c15.601,2.228,31.239-1.695,46.602-11.664c12.578,8.161,25.341,12.268,38.115,12.268c2.829,0,5.659-0.202,8.486-0.605    c15.715-2.244,30.531-10.873,42.841-24.959c15.957-18.256,26.483-44.625,28.629-70.575c2.106-25.464-3.855-50.524-20.719-67.112    c-5.831-5.736-12.07-10.208-18.648-13.422c-3.623-1.77-7.35-3.153-11.168-4.151c2.014-2.793,3.602-5.796,4.777-8.924    c4.084-10.878,3.091-23.24-2.987-33.39v-6.727h129.7v78.327h-59.239c-6.41,0-11.609,5.199-11.609,11.609    c0,6.41,5.199,11.609,11.609,11.609h59.236v67.375h-58.075c-1.83,0-3.554,0.435-5.093,1.189c-3.854,1.889-6.516,5.838-6.516,10.42    c0,6.41,5.199,11.609,11.609,11.609h69.684c6.41,0,11.609-5.199,11.609-11.609V198.228    C512,195.984,511.35,193.789,510.127,191.906z M124.287,163.738c0-21.382,17.395-38.776,38.776-38.776h14.093    c21.382,0,38.776,17.395,38.776,38.776v0.514h-91.646C124.287,164.252,124.287,163.738,124.287,163.738z M315.215,264.445    c2.984-2.982,6.903-4.473,10.822-4.473c3.919,0,7.84,1.492,10.823,4.474c5.968,5.969,5.968,15.679,0,21.646    c-3.003,3.003-15.609,6.39-30.029,8.408C308.771,280.847,312.048,267.611,315.215,264.445z M370.828,331.91    c24.155,23.761,15.181,78.065-9.11,105.855c-13.177,15.074-35.122,28.208-64.847,5.165c-4.187-3.247-10.039-3.246-14.226,0    c-29.724,23.043-51.672,9.909-64.848-5.164c-24.291-27.79-33.263-82.093-9.11-105.855c9.482-9.328,19.61-12.638,29.213-12.638    c22.797,0,42.625,18.66,43.778,19.766c4.503,4.365,11.657,4.365,16.16,0c0.104-0.102,10.878-10.309,25.525-16.063    C341.814,315.725,357.344,318.647,370.828,331.91z M488.78,225.528H359.082v-23.861l46.178-71.124    c1.223-1.882,1.873-4.079,1.873-6.321V56.606h33.598v67.616c0,2.244,0.651,4.439,1.871,6.321l46.178,71.124V225.528z" fill="#f8a02b"/>
	</g>
</g>
<g>
</g>
<g>
</g>
<g>
</g>
<g>
</g>
<g>
</g>
<g>
</g>
<g>
</g>
<g>
</g>
<g>
</g>
<g>
</g>
<g>
</g>
<g>
</g>
<g>
</g>
<g>
</g>
<g>
</g>
</svg>
