<svg xmlns="http://www.w3.org/2000/svg" width="512" height="512"><g fill="#004269"><path d="M501.33 202.67c5.9 0 10.67-4.77 10.67-10.67v-85.33C512 83.14 492.87 64 469.33 64H42.67C19.13 64 0 83.14 0 106.67V192c0 5.9 4.77 10.67 10.67 10.67C40.07 202.67 64 226.6 64 256s-23.93 53.33-53.33 53.33C4.77 309.33 0 314.1 0 320v85.33C0 428.87 19.14 448 42.67 448h426.66c23.54 0 42.67-19.13 42.67-42.67V320c0-5.9-4.77-10.67-10.67-10.67-29.4 0-53.33-23.92-53.33-53.33s23.93-53.33 53.33-53.33zM426.67 256c0 37.55 27.86 68.72 64 73.9v75.43c0 11.76-9.58 21.34-21.34 21.34H42.67c-11.76 0-21.34-9.58-21.34-21.34V329.9c36.14-5.18 64-36.35 64-73.9s-27.86-68.72-64-73.9v-75.43c0-11.76 9.58-21.34 21.34-21.34h426.66c11.76 0 21.34 9.58 21.34 21.34v75.42c-36.14 5.18-64 36.35-64 73.9zM138.67 104c-5.9 0-10.67 4.77-10.67 10.67v24c0 5.9 4.77 10.66 10.67 10.66s10.66-4.77 10.66-10.66v-24c0-5.9-4.77-10.67-10.66-10.67zM138.67 192c-5.9 0-10.67 4.77-10.67 10.67V224c0 5.9 4.77 10.67 10.67 10.67s10.66-4.77 10.66-10.67v-21.33c0-5.9-4.77-10.67-10.66-10.67zM138.67 277.33c-5.9 0-10.67 4.77-10.67 10.67v21.33c0 5.9 4.77 10.67 10.67 10.67s10.66-4.77 10.66-10.67V288c0-5.9-4.77-10.67-10.66-10.67zM138.67 362.67c-5.9 0-10.67 4.77-10.67 10.66v21.34c0 5.9 4.77 10.66 10.67 10.66s10.66-4.77 10.66-10.66v-21.34c0-5.9-4.77-10.66-10.66-10.66zM357.92 151.13c-4.94-3.28-11.53-1.95-14.8 2.95l-128 192c-3.27 4.9-1.94 11.52 2.96 14.8 1.83 1.2 3.88 1.8 5.9 1.8 3.46 0 6.84-1.68 8.9-4.76l128-192c3.27-4.9 1.94-11.52-2.96-14.8zM277.33 202.67c0-29.4-19.13-53.34-42.66-53.34S192 173.26 192 202.67 211.13 256 234.67 256s42.66-23.93 42.66-53.33zm-64 0c0-17.35 9.77-32 21.34-32s21.33 14.65 21.33 32-9.77 32-21.33 32-21.34-14.66-21.34-32zM341.33 256c-23.53 0-42.66 23.93-42.66 53.33s19.13 53.34 42.66 53.34c23.53 0 42.67-23.93 42.67-53.34S364.87 256 341.33 256zm0 85.33c-11.56 0-21.33-14.65-21.33-32s9.77-32 21.33-32c11.57 0 21.34 14.66 21.34 32s-9.77 32-21.34 32z"/></g></svg>