<svg xmlns="http://www.w3.org/2000/svg" width="512" height="512" viewBox="0 0 612 612" enable-background="new 0 0 612 612"><g fill="#fff"><path d="M612 306C612 137 475 0 306 0S0 137 0 306s137 306 306 306 306-137 306-306zm-584.18 0C27.82 152.36 152.36 27.82 306 27.82S584.18 152.36 584.18 306 459.64 584.18 306 584.18 27.82 459.64 27.82 306zM317.74 482.62V306h58.28l9.2-58.53h-67.48v-29.35c0-15.27 5-29.85 26.93-29.85h43.8v-58.4h-62.2c-52.3 0-66.56 34.42-66.56 82.16v35.4h-35.88V306h35.9v176.62h58.02z"/></g></svg>