<?xml version="1.0" encoding="iso-8859-1"?>
<!-- Generator: Adobe Illustrator 18.0.0, SVG Export Plug-In . SVG Version: 6.00 Build 0)  -->
<!DOCTYPE svg PUBLIC "-//W3C//DTD SVG 1.1//EN" "http://www.w3.org/Graphics/SVG/1.1/DTD/svg11.dtd">
<svg xmlns="http://www.w3.org/2000/svg" xmlns:xlink="http://www.w3.org/1999/xlink" version="1.1" id="Capa_1" x="0px" y="0px" viewBox="0 0 270.754 270.754" style="enable-background:new 0 0 270.754 270.754;" xml:space="preserve" width="512px" height="512px">
<g>
	<path d="M244.228,50.947H154.47H94.648H67.454h-21.77c-14.627,0-26.526,11.9-26.526,26.526v138.639   c0,14.627,11.899,26.527,26.526,26.527h198.543c14.627,0,26.526-11.9,26.526-26.527v-54.15V77.473   C270.754,62.847,258.854,50.947,244.228,50.947z M244.228,65.947c6.355,0,11.526,5.171,11.526,11.526v84.489   c0,6.355-5.171,11.526-11.526,11.526H154.47c-6.355,0-11.526-5.17-11.526-11.526V77.473c0-6.355,5.171-11.526,11.526-11.526   H244.228z M244.228,227.639H45.685c-6.355,0-11.526-5.171-11.526-11.527V77.473c0-6.355,5.171-11.526,11.526-11.526h21.77h27.194   h35.934c-1.69,3.488-2.639,7.398-2.639,11.526v84.489c0,14.626,11.899,26.526,26.526,26.526h89.758   c4.128,0,8.039-0.949,11.526-2.638v30.262C255.754,222.468,250.583,227.639,244.228,227.639z" fill="#f8a02b"/>
	<path d="M199.345,159.569c21.975,0,39.852-17.878,39.852-39.853c0-21.974-17.877-39.851-39.852-39.851   s-39.853,17.877-39.853,39.851C159.492,141.691,177.37,159.569,199.345,159.569z M199.345,94.865   c13.703,0,24.852,11.148,24.852,24.851c0,13.704-11.148,24.853-24.852,24.853c-13.704,0-24.853-11.149-24.853-24.853   C174.492,106.014,185.641,94.865,199.345,94.865z" fill="#f8a02b"/>
	<path d="M108.248,75.812H53.856c-4.143,0-7.5,3.358-7.5,7.5v61.935c0,4.142,3.357,7.5,7.5,7.5h54.392c4.143,0,7.5-3.358,7.5-7.5   V83.312C115.748,79.17,112.391,75.812,108.248,75.812z M100.748,137.747H61.356V90.812h39.392V137.747z" fill="#f8a02b"/>
	<path d="M67.454,43.115h27.194c4.143,0,7.5-3.358,7.5-7.5s-3.357-7.5-7.5-7.5H67.454c-4.143,0-7.5,3.358-7.5,7.5   S63.312,43.115,67.454,43.115z" fill="#f8a02b"/>
	<path d="M7.5,158.638c-4.142,0-7.5,3.358-7.5,7.5v41.926c0,4.142,3.358,7.5,7.5,7.5c4.143,0,7.5-3.358,7.5-7.5v-41.926   C15,161.996,11.643,158.638,7.5,158.638z" fill="#f8a02b"/>
	<path d="M236.401,200.563h-74.448c-4.143,0-7.5,3.358-7.5,7.5c0,4.142,3.357,7.5,7.5,7.5h74.448c4.143,0,7.5-3.358,7.5-7.5   C243.901,203.921,240.544,200.563,236.401,200.563z" fill="#f8a02b"/>
	<path d="M81.054,158.638c-15.695,0-28.465,12.769-28.465,28.464c0,15.694,12.769,28.462,28.465,28.462   c15.694,0,28.463-12.768,28.463-28.462C109.517,171.407,96.748,158.638,81.054,158.638z M81.054,200.563   c-7.425,0-13.465-6.039-13.465-13.462c0-7.424,6.04-13.464,13.465-13.464c7.424,0,13.463,6.04,13.463,13.464   C94.517,194.525,88.478,200.563,81.054,200.563z" fill="#f8a02b"/>
	<path d="M135.443,43.115h108.784c4.143,0,7.5-3.358,7.5-7.5s-3.357-7.5-7.5-7.5H135.443c-4.143,0-7.5,3.358-7.5,7.5   S131.301,43.115,135.443,43.115z" fill="#f8a02b"/>
</g>
<g>
</g>
<g>
</g>
<g>
</g>
<g>
</g>
<g>
</g>
<g>
</g>
<g>
</g>
<g>
</g>
<g>
</g>
<g>
</g>
<g>
</g>
<g>
</g>
<g>
</g>
<g>
</g>
<g>
</g>
</svg>
