<svg xmlns="http://www.w3.org/2000/svg" width="512" height="512" viewBox="0 0 612 612" enable-background="new 0 0 612 612"><g fill="#fff"><path d="M349.15 402.25c0-30.02-17.4-44.8-36.53-60.92l-15.66-12.2c-4.8-3.88-11.3-9.1-11.3-18.68 0-9.57 6.54-15.66 12.2-21.3 18.24-14.36 36.52-29.58 36.52-61.76 0-33.1-20.9-50.48-30.88-58.74h26.95L358.27 153h-89.6c-23.48 0-53.05 3.48-77.87 23.92C172.1 193 163 215.2 163 235.2c0 33.9 26.08 68.3 72.17 68.3 4.37 0 9.13-.45 13.94-.87-2.16 5.23-4.33 9.57-4.33 16.97 0 13.47 6.96 21.76 13.05 29.57-19.56 1.3-56.1 3.48-83.07 20-25.67 15.22-33.5 37.42-33.5 53.08 0 32.2 30.47 62.2 93.54 62.2 74.76 0 114.35-41.33 114.35-82.2zm-93.53-110.9c-37.4 0-54.38-48.3-54.38-77.43 0-11.32 2.17-23.03 9.57-32.18 6.96-8.7 19.14-14.4 30.47-14.4 36.1 0 54.8 48.75 54.8 80.05 0 7.83-.86 21.74-10.88 31.75-6.96 6.96-18.7 12.16-29.58 12.2zm.45 174.83c-46.54 0-76.56-22.17-76.56-53.05s27.86-41.3 37.43-44.8c18.27-6.08 41.75-6.97 45.67-6.97 4.34 0 6.5 0 10 .44 33.07 23.48 47.4 35.22 47.4 57.42 0 26.96-22.18 46.96-63.93 46.96zM353.07 317.77h47.1v47.07h23.53v-47.07h47.07v-23.54H423.7v-47.07h-23.54v47.07h-47.1zM612 306C612 137 475 0 306 0S0 137 0 306s137 306 306 306 306-137 306-306zm-584.18 0C27.82 152.36 152.36 27.82 306 27.82S584.18 152.36 584.18 306 459.64 584.18 306 584.18 27.82 459.64 27.82 306z"/></g></svg>