<svg xmlns="http://www.w3.org/2000/svg" width="612" height="792"><path fill="#ACD9F8" d="M606 394c0 165.7-134.3 300-300 300S6 559.7 6 394 140.3 94 306 94s300 134.3 300 300zM172.17 533.7c55.78 22.5 127.03 7.25 162.66-45.48 23.44-33.28 28.6-75.94 25.78-116.02-45.46-.47-91.16-.23-136.63-.23v51.1c27.2.93 54.6.46 81.8.93-11.96 63.5-94.22 83.9-137.58 42.65-44.78-36.32-42.67-116 3.97-149.76 32.58-27.2 78.75-20.4 111.1 3.04 12.65-12.43 24.6-25.78 36.32-39.38-26.96-22.73-60.24-38.67-95.4-37.03-73.6-2.58-141.33 65.16-142.5 142.5-4.92 63.28 34.46 125.16 90.47 147.66zm276.8-161.97c-13.6 0-27.2.24-40.78.24v42.65c13.58.24 27.18.24 40.77.47.23 14.3.23 28.6.23 42.88h40.78c0-14.3.24-28.6.24-42.9 13.6-.22 27.2-.22 40.78-.46v-42.65c-13.6-.24-27.2-.24-40.78-.24-.24-14.3-.24-28.6-.24-42.9h-40.54c-.24 14.3-.47 28.6-.47 42.9z"/></svg>