<svg xmlns="http://www.w3.org/2000/svg" width="612" height="792"><path fill="#ACD9F8" d="M306 440.14c24.42 0 44.14-19.72 44.14-44.14s-19.72-44.13-44.14-44.13-44.14 19.72-44.14 44.13c0 24.42 19.72 44.14 44.14 44.14zM401.08 311c13.38 0 23.95-10.78 23.95-23.93 0-13.38-10.8-23.95-23.95-23.95s-23.95 10.8-23.95 23.95c0 13.15 10.8 23.94 23.95 23.94zm-6.8 85c0 48.6-39.45 88.27-88.28 88.27s-88.27-39.44-88.27-88.27c0-10.33 1.88-19.95 5.16-29.35h-42.74v119.5c0 20.66 16.9 37.56 37.57 37.56h170.2c20.66 0 37.56-16.9 37.56-37.55V329.1H363.5c18.78 16.2 30.75 40.14 30.75 66.9zM306 95.5C140.02 95.5 5.5 230.02 5.5 396S140.02 696.5 306 696.5 606.5 561.98 606.5 396 471.98 95.5 306 95.5zm160.34 422.34c0 27.47-22.53 50-50 50H189.32c-27.47 0-50-22.53-50-50v-227c0-27.48 22.53-50.02 50-50.02h227.02c27.47 0 50 22.54 50 50v227.02z"/></svg>