<?xml version="1.0" encoding="iso-8859-1"?>
<!-- Generator: Adobe Illustrator 19.0.0, SVG Export Plug-In . SVG Version: 6.00 Build 0)  -->
<svg xmlns="http://www.w3.org/2000/svg" xmlns:xlink="http://www.w3.org/1999/xlink" version="1.1" id="Layer_1" x="0px" y="0px" viewBox="0 0 512 512" style="enable-background:new 0 0 512 512;" xml:space="preserve" width="512px" height="512px">
<g>
	<g>
		<g>
			<path d="M481.567,367.312c-30.274-56.554-79.893-121.077-140.243-182.502l29.799-29.8c9.005,6.187,19.677,9.528,30.891,9.528     c14.623,0,28.338-5.662,38.615-15.94l68.364-68.362c1.874-1.874,2.928-4.417,2.928-7.068s-1.054-5.193-2.928-7.07L445.901,3.009     c-3.904-3.903-10.234-3.903-14.138,0L363.401,71.37c-18.877,18.877-21.005,48.241-6.411,69.499l-29.804,29.804     C223.011,68.329,112.962,0.082,51.405,0.082c-16.094,0-28.807,4.554-37.789,13.535C-9.115,36.349-3.301,81.671,30.43,144.686     c30.273,56.554,79.891,121.077,140.242,182.5l-29.799,29.8c-9.005-6.186-19.676-9.524-30.887-9.524     c-14.625,0-28.34,5.66-38.618,15.94l-68.36,68.361c-1.874,1.876-2.929,4.419-2.929,7.07c0,2.651,1.055,5.193,2.929,7.068     L66.1,508.991c1.951,1.95,4.511,2.927,7.069,2.927c2.558,0,5.116-0.977,7.068-2.927l68.362-68.364     c10.28-10.278,15.941-23.99,15.941-38.615c-0.001-11.214-3.342-21.885-9.529-30.89l29.802-29.8     c104.172,102.346,214.222,170.596,275.782,170.596c16.094,0,28.807-4.556,37.789-13.537     C521.116,475.651,515.302,430.327,481.567,367.312z M377.538,85.508l61.294-61.294l48.956,48.956l-61.294,61.292     c-6.502,6.502-15.195,10.085-24.477,10.085c-9.283,0-17.974-3.581-24.476-10.083c-0.017-0.018-0.035-0.035-0.053-0.051     C364.04,120.909,364.058,98.987,377.538,85.508z M134.463,426.49l-61.294,61.296l-48.956-48.955l61.294-61.295     c6.501-6.502,15.195-10.083,24.478-10.083c9.234,0,17.884,3.542,24.374,9.979c0.034,0.035,0.068,0.07,0.104,0.105     c6.501,6.5,10.081,15.192,10.082,24.474C144.546,411.296,140.966,419.988,134.463,426.49z M184.81,313.047     c-58.99-60.055-107.37-122.908-136.752-177.795C20.157,83.127,12.565,42.943,27.753,27.754c5.096-5.096,13.053-7.68,23.651-7.68     c55.764,0,162.474,67.377,261.643,164.737l-14.224,14.225c-35.419-33.004-75.447-53.194-106.186-53.194     c-14.088,0-25.902,4.368-34.163,12.631c-14.354,14.352-16.565,38.248-6.225,67.286c8.569,24.064,25.053,49.711,46.799,73.051     L184.81,313.047z M298.804,227.33c19.677,21.218,34.498,44.234,42.113,65.618c7.496,21.048,6.939,37.976-1.527,46.442     c-4.495,4.495-11.232,6.773-20.027,6.773c-25.346,0-60.717-18.359-92.036-47.358L298.804,227.33z M213.193,284.666     c-19.675-21.218-34.494-44.232-42.108-65.614c-7.496-21.048-6.939-37.976,1.528-46.442c4.494-4.495,11.231-6.773,20.025-6.773     c25.346,0,60.715,18.357,92.032,47.354L213.193,284.666z M484.247,484.243c-5.096,5.096-13.055,7.682-23.653,7.682     c-55.768,0-162.479-67.379-261.645-164.741l14.224-14.224c35.421,33.006,75.451,53.198,106.19,53.198     c14.089,0,25.902-4.368,34.165-12.631c14.354-14.352,16.565-38.25,6.224-67.288c-8.57-24.064-25.056-49.711-46.803-73.053     l14.238-14.238c58.992,60.055,107.373,122.91,136.755,177.799C491.844,428.871,499.434,469.057,484.247,484.243z" fill="#f8a02b"/>
			<path d="M90.765,129.717c-6.826-11.732-12.335-22.218-16.868-32.105c-0.135-0.295-0.271-0.592-0.405-0.889     c-2.258-5.037-8.172-7.293-13.212-5.031c-5.037,2.257-7.291,8.173-5.032,13.211c0.161,0.359,0.327,0.721,0.499,1.092     c4.779,10.431,10.583,21.477,17.734,33.774c5.438,9.354,11.408,18.961,17.742,28.552c1.923,2.911,5.105,4.489,8.351,4.489     c1.892,0,3.805-0.537,5.5-1.655c4.608-3.044,5.875-9.245,2.833-13.851C101.782,148.025,96.015,138.745,90.765,129.717z" fill="#f8a02b"/>
			<path d="M63.541,70.496l-0.129-0.441c-1.525-5.307-7.063-8.372-12.369-6.848c-5.307,1.525-8.372,7.062-6.848,12.369l0.172,0.584     c1.285,4.351,5.266,7.168,9.583,7.168c0.938,0,1.892-0.133,2.837-0.412C62.081,81.353,65.106,75.792,63.541,70.496z" fill="#f8a02b"/>
			<path d="M456.72,407.02l-0.465-1.016c-4.781-10.431-10.585-21.477-17.734-33.77c-5.455-9.382-11.425-18.988-17.744-28.554     c-3.044-4.606-9.245-5.873-13.852-2.829c-4.607,3.044-5.873,9.245-2.83,13.851c6.11,9.247,11.877,18.527,17.143,27.583     c6.824,11.73,12.334,22.216,16.817,31.994l0.489,1.068c1.681,3.671,5.305,5.836,9.095,5.836c1.394,0,2.809-0.293,4.157-0.91     C456.815,417.973,459.021,412.04,456.72,407.02z" fill="#f8a02b"/>
			<path d="M455.358,429.043c-5.317,1.484-8.424,7-6.939,12.316l0.167,0.574c1.255,4.392,5.257,7.254,9.607,7.254     c0.909,0,1.833-0.125,2.751-0.389c5.308-1.518,8.382-7.049,6.866-12.357l-0.134-0.461     C466.19,430.661,460.673,427.55,455.358,429.043z" fill="#f8a02b"/>
		</g>
	</g>
</g>
<g>
</g>
<g>
</g>
<g>
</g>
<g>
</g>
<g>
</g>
<g>
</g>
<g>
</g>
<g>
</g>
<g>
</g>
<g>
</g>
<g>
</g>
<g>
</g>
<g>
</g>
<g>
</g>
<g>
</g>
</svg>
