<svg xmlns="http://www.w3.org/2000/svg" width="512" height="512" viewBox="0 0 478.165 478.165" enable-background="new 0 0 478.165 478.165"><path fill="#fff" d="M478.17 232.95c0 128.56-105.06 232.96-234.68 232.96-41.12 0-79.83-10.6-113.46-28.96L0 478.17 42.44 353.1C21 318.06 8.67 276.93 8.67 232.97 8.67 104.34 113.77 0 243.47 0c129.64 0 234.7 104.34 234.7 232.95zM243.47 37.1c-108.8 0-197.4 87.8-197.4 195.87 0 42.9 13.98 82.6 37.57 114.87l-24.6 72.55 75.86-23.98c31.12 20.48 68.46 32.3 108.6 32.3 108.7 0 197.3-87.85 197.3-195.9 0-107.9-88.6-195.72-197.3-195.72zm118.46 249.52c-1.4-2.33-5.22-3.75-10.9-6.8-5.9-2.86-34.1-16.5-39.5-18.38-5.16-1.92-9-2.85-12.82 2.82-4 5.64-14.9 18.63-18.22 22.36-3.54 3.78-6.85 4.26-12.55 1.43-5.62-2.8-24.27-8.86-46.2-28.4-17.06-15.03-28.67-33.7-32-39.5-3.43-5.75-.4-8.82 2.47-11.63 2.7-2.6 5.78-6.73 8.63-10.04 2.97-3.3 3.9-5.64 5.8-9.43 1.9-3.9.93-7.2-.48-10.14-1.42-2.84-13-30.87-17.75-42.32-4.84-11.42-9.55-9.53-12.87-9.53-3.47 0-7.22-.47-11.12-.47-3.78 0-10.03 1.4-15.37 7.2-5.2 5.65-20.12 19.45-20.12 47.58 0 28.06 20.6 55.3 23.56 59.06 2.86 3.78 39.74 63.2 98.3 86.07 58.47 22.86 58.47 15.3 69.1 14.35 10.4-.95 34.08-13.86 38.82-27.1 4.67-13.44 4.67-24.76 3.25-27.13z"/></svg>