<?xml version="1.0" encoding="iso-8859-1"?>
<!-- Generator: Adobe Illustrator 19.0.0, SVG Export Plug-In . SVG Version: 6.00 Build 0)  -->
<svg xmlns="http://www.w3.org/2000/svg" xmlns:xlink="http://www.w3.org/1999/xlink" version="1.1" id="Capa_1" x="0px" y="0px" viewBox="0 0 512 512" style="enable-background:new 0 0 512 512;" xml:space="preserve" width="512px" height="512px">
<g>
	<g>
		<g>
			<rect x="95.929" y="20.794" transform="matrix(-0.7071 0.7071 -0.7071 -0.7071 196.572 -24.8344)" width="15" height="15" fill="#f8a02b"/>
			
				<rect x="149.219" y="23.725" transform="matrix(-0.7071 0.7071 -0.7071 -0.7071 325.2245 28.4562)" width="15" height="115.719" fill="#f8a02b"/>
			<rect x="78.25" y="3.11" transform="matrix(0.7071 0.7071 -0.7071 0.7071 32.6184 -57.527)" width="15" height="15" fill="#f8a02b"/>
			<rect x="70.495" y="131.096" transform="matrix(0.7071 0.7071 -0.7071 0.7071 122.4163 -18.3462)" width="25.718" height="15" fill="#f8a02b"/>
			<rect x="12.437" y="90.172" transform="matrix(0.7071 0.7071 -0.7071 0.7071 81.4939 -1.4)" width="59.999" height="15" fill="#f8a02b"/>
			<rect x="113.139" y="65.875" transform="matrix(0.7071 -0.7071 0.7071 0.7071 -42.9278 117.7215)" width="15" height="89.609" fill="#f8a02b"/>
			<rect x="47.404" y="441.948" transform="matrix(0.7071 0.7071 -0.7071 0.7071 333.8886 92.8175)" width="15" height="15" fill="#f8a02b"/>
			<rect x="29.722" y="424.281" transform="matrix(-0.7071 -0.7071 0.7071 -0.7071 -241.7733 763.4158)" width="15" height="15" fill="#f8a02b"/>
			<rect x="65.084" y="459.631" transform="matrix(0.7071 0.7071 -0.7071 0.7071 351.5708 85.4951)" width="15" height="15" fill="#f8a02b"/>
			<rect x="444.488" y="397.444" transform="matrix(-0.7071 -0.7071 0.7071 -0.7071 485.2531 1010.8864)" width="15" height="15" fill="#f8a02b"/>
			<rect x="426.808" y="379.767" transform="matrix(-0.7071 -0.7071 0.7071 -0.7071 467.571 968.2084)" width="15" height="15" fill="#f8a02b"/>
			<rect x="462.182" y="415.113" transform="matrix(0.7071 0.7071 -0.7071 0.7071 436.3994 -208.3348)" width="15" height="15" fill="#f8a02b"/>
			<rect x="30.087" y="280.886" transform="matrix(-0.7071 -0.7071 0.7071 -0.7071 -139.7553 518.883)" width="15" height="15" fill="#f8a02b"/>
			<rect x="47.771" y="298.551" transform="matrix(0.7071 0.7071 -0.7071 0.7071 232.5989 50.5579)" width="15" height="15" fill="#f8a02b"/>
			
				<rect x="108.349" y="298.456" transform="matrix(0.7071 -0.7071 0.7071 0.7071 -225.3188 189.3015)" width="15" height="136.359" fill="#f8a02b"/>
			<rect x="111.416" y="439.63" transform="matrix(0.7071 0.7071 -0.7071 0.7071 350.9982 46.8753)" width="15" height="15" fill="#f8a02b"/>
			<rect x="126.048" y="464.65" transform="matrix(0.7071 0.7071 -0.7071 0.7071 376.017 36.5147)" width="35.768" height="15" fill="#f8a02b"/>
			<rect x="93.724" y="421.958" transform="matrix(-0.7071 -0.7071 0.7071 -0.7071 -130.8721 804.7076)" width="15" height="15" fill="#f8a02b"/>
			<path d="M283.34,443.227c5.698,0,11.055-2.219,15.084-6.248c4.029-4.029,6.248-9.386,6.247-15.083     c0-11.761-9.568-21.33-21.331-21.332h-21.697l-80.271-80.271c8.049-11.353,19.477-19.936,32.691-24.447l-4.846-14.195     c-15.398,5.257-28.802,15.03-38.563,27.926l-88.523-88.522v-21.697c0-11.762-9.569-21.331-21.332-21.331     c-11.762,0-21.331,9.569-21.331,21.331v39.368l204.504,204.501H283.34z M54.469,199.356c0-3.491,2.84-6.331,6.331-6.331     c3.491,0,6.332,2.84,6.332,6.331v27.91L255.43,415.564h27.909c3.491,0,6.332,2.841,6.332,6.333c0,1.69-0.658,3.28-1.854,4.476     c-1.196,1.196-2.786,1.854-4.478,1.854h-33.155L54.469,232.511V199.356z" fill="#f8a02b"/>
			
				<rect x="228.872" y="165.131" transform="matrix(-0.7071 -0.7071 0.7071 -0.7071 278.724 468.4035)" width="15" height="22.691" fill="#f8a02b"/>
			<rect x="249.275" y="148.583" transform="matrix(-0.7071 -0.7071 0.7071 -0.7071 327.9751 448.0175)" width="15" height="15" fill="#f8a02b"/>
			<rect x="266.948" y="130.891" transform="matrix(0.7071 0.7071 -0.7071 0.7071 178.2414 -153.5302)" width="15" height="15" fill="#f8a02b"/>
			<path d="M446.896,314.416L402.711,358.6c-7.526-10.77-19.963-17.496-33.559-17.496c-14.431,0-27.426,7.4-34.793,19.345     c-5.661-1.688-11.545-2.488-17.556-2.322c-0.137-22.75-9.879-44.523-26.776-59.809l-10.063,11.123     c13.88,12.557,21.841,30.479,21.841,49.174c0,2.318-0.129,4.707-0.383,7.099l-1.069,10.07l9.944-1.913     c2.629-0.506,5.294-0.763,7.923-0.763c5.828,0,11.479,1.19,16.794,3.537l7.142,3.153l2.864-7.263     c3.938-9.982,13.409-16.432,24.132-16.432c9.538,0,18.178,5.223,22.688,13.367l-91.374,91.373l10.607,10.607l135.822-135.823     L497,385.732v111.263H361.702l28.696-28.696l-10.607-10.607l-41.239,41.239l13.131,13.065H512V379.52L446.896,314.416z" fill="#f8a02b"/>
			<path d="M261.761,461.03l35.966,35.965H15V370.102l30.649,30.649l10.607-10.607L15,348.887V214.268l6.665,6.667l10.607-10.605     l-0.001-0.001l0.001-0.001l-17.27-17.271v-64.281c6.153,6.376,9.782,15.002,9.782,24.159c0,4.314-0.783,8.523-2.327,12.512     c-2.754,7.113-0.181,15.211,6.119,19.256c0.236,0.151,0.469,0.311,0.694,0.477l8.859-12.105     c-0.474-0.346-0.958-0.679-1.451-0.995c-0.366-0.235-0.394-0.802-0.233-1.216c2.216-5.723,3.339-11.754,3.339-17.928     c0-19.465-11.453-37.249-29.179-45.307l-10.604-4.821L0,511.995h333.939l-61.571-61.572L261.761,461.03z" fill="#f8a02b"/>
			<path d="M202.896,165.216l-71.63,0.001l-41.938,41.937l10.607,10.607l37.543-37.544l71.63-0.001l62.377-62.376l-75.854-75.853     l12.981-12.98l200.29,200.29l-12.98,12.98L319.845,166.2l-62.349,62.35l0.001,157.69h15l-0.001-151.478l47.349-47.35     l76.077,76.077l34.193-34.193l-83.994-83.994c0.642,0.022,1.282,0.049,1.93,0.049c30.664,0,55.611-24.947,55.611-55.611     s-24.947-55.611-55.611-55.611S292.44,59.076,292.44,89.74c0,0.647,0.027,1.288,0.049,1.93L208.613,7.794l-34.194,34.193     l75.854,75.853L202.896,165.216z M348.051,49.128c22.394,0,40.611,18.218,40.611,40.611s-18.218,40.611-40.611,40.611     s-40.611-18.218-40.611-40.611S325.657,49.128,348.051,49.128z" fill="#f8a02b"/>
			<polygon points="145.083,198.573 111.206,232.449 121.813,243.057 151.296,213.573 201.381,213.573 224.141,236.333      224.141,352.883 239.141,352.883 239.141,230.12 207.594,198.573    " fill="#f8a02b"/>
		</g>
	</g>
</g>
<g>
</g>
<g>
</g>
<g>
</g>
<g>
</g>
<g>
</g>
<g>
</g>
<g>
</g>
<g>
</g>
<g>
</g>
<g>
</g>
<g>
</g>
<g>
</g>
<g>
</g>
<g>
</g>
<g>
</g>
</svg>
