<svg xmlns="http://www.w3.org/2000/svg" width="512" height="512" viewBox="0 0 612 612" enable-background="new 0 0 612 612"><g fill="#fff"><path d="M437.22 245.16c0-3.1-.06-6.15-.2-9.18 13.22-9.85 24.68-22.17 33.75-36.27-12.13 5.46-25.15 9.1-38.84 10.63 13.97-8.6 24.68-22.34 29.74-38.83-13.07 7.93-27.54 13.6-42.92 16.55-12.33-14.02-29.9-22.95-49.35-23.28-37.33-.62-67.6 30.93-67.6 70.46 0 5.62.58 11.07 1.75 16.33-56.22-3.62-106.04-32.88-139.37-77-5.8 10.57-9.15 22.92-9.15 36.16 0 25.04 11.93 47.3 30.07 60.42-11.1-.5-21.5-3.86-30.63-9.37 0 .3 0 .6 0 .92 0 34.98 23.32 64.3 54.25 71.15-5.68 1.6-11.66 2.44-17.8 2.42-4.37-.03-8.6-.5-12.72-1.4 8.6 28.7 33.58 49.63 63.15 50.33-23.15 19.2-52.3 30.65-83.96 30.57-5.46 0-10.85-.36-16.14-1.03 29.93 20.53 65.46 32.5 103.65 32.5 124.33.02 192.32-108.2 192.32-202.08zM612 306C612 137 475 0 306 0S0 137 0 306s137 306 306 306 306-137 306-306zm-584.18 0C27.82 152.36 152.36 27.82 306 27.82S584.18 152.36 584.18 306 459.64 584.18 306 584.18 27.82 459.64 27.82 306z"/></g></svg>