<svg xmlns="http://www.w3.org/2000/svg" width="612" height="792"><path fill="#ACD9F8" d="M306 117.5C140.57 117.5 6.5 251.57 6.5 417S140.57 716.5 306 716.5 605.5 582.43 605.5 417 471.43 117.5 306 117.5zm150.92 239.13c.23 3.28.23 6.55.23 9.83 0 99.68-75.8 214.8-214.8 214.8-42.58 0-82.36-12.4-115.82-33.93 5.85.7 11.94.94 18.02.94 35.33 0 67.86-12.17 93.83-32.3-33-.7-60.84-22.46-70.43-52.4a72 72 0 0 0 14.27 1.4c6.8 0 13.57-.94 19.9-2.58-34.64-7.03-60.6-37.44-60.6-73.95v-.93c10.05 5.6 21.75 9.12 34.15 9.36-20.36-13.57-33.7-36.74-33.7-62.94 0-13.8 3.75-26.9 10.3-37.9 37.2 45.62 92.9 75.8 155.6 78.84-1.4-5.6-1.87-11.23-1.87-17.08 0-41.65 33.7-75.58 75.58-75.58 21.76 0 41.4 9.13 54.98 23.87 17.08-3.28 33.46-9.6 47.97-18.26-5.62 17.55-17.55 32.52-33.23 41.65 15.2-1.88 29.95-5.86 43.3-11.94-10.07 15.2-22.94 28.54-37.68 39.07z"/></svg>